<svg width="153" height="124" viewBox="0 0 153 124" fill="none" xmlns="http://www.w3.org/2000/svg">
<path fill-rule="evenodd" clip-rule="evenodd" d="M33.1313 88.349C35.5029 86.8836 37.8763 85.4217 40.2454 83.9517C68.5242 66.413 96.8022 48.8735 125.08 31.3329C131.219 27.525 137.363 23.7244 143.49 19.8974C145.531 18.6221 147.59 18.9071 149.528 19.9353C151.387 20.9214 152.368 22.5107 152.363 24.7852C152.319 45.7341 152.333 66.6829 152.344 87.6315C152.345 89.6292 152.221 91.6083 151.769 93.5561C151.316 95.5073 150.372 97.2063 148.778 98.4164C146.433 100.199 141.595 99.0506 140.175 96.4465C132.584 82.5301 121.594 71.8919 108.415 63.3627C107.936 63.0521 107.37 62.8444 107.016 62.2316C112.872 63.0091 118.519 64.3236 124.013 66.2935C129.49 68.2575 134.603 70.8776 139.345 74.9883C139.345 61.5893 139.345 48.5199 139.345 35.3889C138.96 35.3156 138.648 35.7872 138.277 36.0562C102.806 61.7708 67.3453 87.498 31.8758 113.215C28.7321 115.494 25.5983 117.799 22.3568 119.934C17.2755 123.281 11.7032 124.243 5.78732 122.781C1.50061 121.721 -0.815152 117.811 0.262798 113.046C1.30865 108.425 2.69356 103.879 3.97664 99.3143C6.83679 89.1392 9.63508 78.9453 12.6304 68.8101C15.2593 59.917 19.6591 52.0567 27.0334 46.1797C31.9279 42.2792 37.6441 40.3067 43.7781 39.4265C51.3924 38.3348 58.9904 38.8326 66.5919 39.6074C70.6763 40.023 74.7664 40.4077 78.8615 40.6861C81.2 40.8452 83.4323 40.2168 85.5042 39.1211C88.7363 37.4125 90.0258 34.8244 89.5241 31.1678C89.099 28.0686 86.8172 25.6162 83.5137 24.9863C76.161 23.5853 68.7935 22.2661 61.4281 20.9301C51.3578 19.1027 41.2795 17.317 31.2139 15.461C27.1531 14.7122 24.1903 11.7546 23.9909 8.23813C23.6644 2.48889 28.1173 -0.98132 33.5583 0.246278C49.0388 3.73906 64.4464 7.5584 79.8795 11.2612C82.5968 11.9135 85.3652 12.4371 87.9977 13.3456C95.7036 16.0048 100.869 20.9734 102.003 29.4449C103.567 41.1292 96.32 51.125 84.6949 53.263C82.0699 53.7457 79.4278 53.9933 76.7541 53.985C69.0331 53.9626 61.3125 53.9715 53.591 53.9792C46.9291 53.9858 41.7551 57.58 39.5267 63.8396C37.4941 69.5486 36.347 75.5096 34.7047 81.3306C34.0689 83.5828 33.4981 85.8533 32.8976 88.1153C32.9754 88.1935 33.0535 88.2714 33.1313 88.349Z" fill="#FF6838"/>
</svg>
